<?xml version="1.0" encoding="utf-8"?>
<!-- Generator: Adobe Illustrator 24.1.1, SVG Export Plug-In . SVG Version: 6.00 Build 0)  -->
<svg version="1.1" id="Layer_1" xmlns="http://www.w3.org/2000/svg" xmlns:xlink="http://www.w3.org/1999/xlink" x="0px" y="0px"
	 viewBox="0 0 512 512" style="enable-background:new 0 0 512 512;" xml:space="preserve">
<g>
	<path d="M107.8,336.8c-14.9,0-26.9-12-26.9-26.9V202.1c0-14.9,12.1-26.9,26.9-26.9s26.9,12,26.9,26.9v107.8
		C134.7,324.8,122.7,336.8,107.8,336.8z M458.1,175.2c0-44.6-36.3-80.8-80.8-80.8H80.8C36.3,94.3,0,130.6,0,175.2v161.7
		c0,44.6,36.3,80.8,80.8,80.8h296.4c44.6,0,80.8-36.3,80.8-80.8c29.8,0,53.9-24.1,53.9-53.9v-53.9
		C512,199.3,487.9,175.2,458.1,175.2z M404.2,336.8c0,14.9-12.1,26.9-26.9,26.9H80.8c-14.8,0-26.9-12.1-26.9-26.9V175.2
		c0-14.9,12.1-26.9,26.9-26.9h296.4c14.8,0,26.9,12.1,26.9,26.9V336.8z"/>
</g>
</svg>
